<svg width="14" height="14" viewBox="0 0 14 14" fill="none" xmlns="http://www.w3.org/2000/svg">
<path d="M7.00016 9.3335C7.72933 9.3335 8.34912 9.07829 8.85954 8.56787C9.36996 8.05745 9.62516 7.43766 9.62516 6.7085C9.62516 5.97933 9.36996 5.35954 8.85954 4.84912C8.34912 4.3387 7.72933 4.0835 7.00016 4.0835C6.271 4.0835 5.6512 4.3387 5.14079 4.84912C4.63037 5.35954 4.37516 5.97933 4.37516 6.7085C4.37516 7.43766 4.63037 8.05745 5.14079 8.56787C5.6512 9.07829 6.271 9.3335 7.00016 9.3335ZM7.00016 8.2835C6.56266 8.2835 6.19079 8.13037 5.88454 7.82412C5.57829 7.51787 5.42516 7.146 5.42516 6.7085C5.42516 6.271 5.57829 5.89912 5.88454 5.59287C6.19079 5.28662 6.56266 5.1335 7.00016 5.1335C7.43766 5.1335 7.80954 5.28662 8.11579 5.59287C8.42204 5.89912 8.57516 6.271 8.57516 6.7085C8.57516 7.146 8.42204 7.51787 8.11579 7.82412C7.80954 8.13037 7.43766 8.2835 7.00016 8.2835ZM7.00016 11.0835C5.58072 11.0835 4.28766 10.6873 3.121 9.89495C1.95433 9.10259 1.1085 8.04044 0.583496 6.7085C1.1085 5.37655 1.95433 4.3144 3.121 3.52204C4.28766 2.72968 5.58072 2.3335 7.00016 2.3335C8.41961 2.3335 9.71266 2.72968 10.8793 3.52204C12.046 4.3144 12.8918 5.37655 13.4168 6.7085C12.8918 8.04044 12.046 9.10259 10.8793 9.89495C9.71266 10.6873 8.41961 11.0835 7.00016 11.0835ZM7.00016 9.91683C8.09877 9.91683 9.10746 9.62759 10.0262 9.04912C10.945 8.47065 11.6474 7.69044 12.1335 6.7085C11.6474 5.72655 10.945 4.94634 10.0262 4.36787C9.10746 3.7894 8.09877 3.50016 7.00016 3.50016C5.90155 3.50016 4.89287 3.7894 3.97412 4.36787C3.05537 4.94634 2.35294 5.72655 1.86683 6.7085C2.35294 7.69044 3.05537 8.47065 3.97412 9.04912C4.89287 9.62759 5.90155 9.91683 7.00016 9.91683Z" fill="white"/>
</svg>
