<svg width="14" height="13" viewBox="0 0 14 13" fill="none" xmlns="http://www.w3.org/2000/svg">
<path d="M9.39183 6.7583L8.546 5.91247C8.6335 5.45552 8.50225 5.02775 8.15225 4.62913C7.80225 4.23052 7.35016 4.07497 6.796 4.16247L5.95016 3.31663C6.11544 3.23886 6.28315 3.18052 6.45329 3.14163C6.62343 3.10275 6.80572 3.0833 7.00016 3.0833C7.72933 3.0833 8.34912 3.33851 8.85954 3.84893C9.36995 4.35934 9.62516 4.97913 9.62516 5.7083C9.62516 5.90275 9.60572 6.08504 9.56683 6.25518C9.52794 6.42531 9.46961 6.59302 9.39183 6.7583ZM11.2585 8.5958L10.4127 7.77913C10.7821 7.49719 11.1102 7.18851 11.397 6.85309C11.6838 6.51768 11.9293 6.13608 12.1335 5.7083C11.6474 4.72636 10.9498 3.94615 10.0408 3.36768C9.13176 2.7892 8.11822 2.49997 7.00016 2.49997C6.71822 2.49997 6.44113 2.51941 6.16891 2.5583C5.89669 2.59719 5.62933 2.65552 5.36683 2.7333L4.46266 1.82913C4.86127 1.66386 5.26961 1.5399 5.68766 1.45726C6.10572 1.37462 6.54322 1.3333 7.00016 1.3333C8.46822 1.3333 9.77586 1.7392 10.9231 2.55101C12.0703 3.36281 12.9016 4.41525 13.4168 5.7083C13.1932 6.28191 12.8991 6.8142 12.5345 7.30518C12.17 7.79615 11.7446 8.22636 11.2585 8.5958ZM11.5502 12.1833L9.10016 9.76247C8.75988 9.86941 8.41718 9.94962 8.07204 10.0031C7.7269 10.0566 7.36961 10.0833 7.00016 10.0833C5.53211 10.0833 4.22447 9.6774 3.07725 8.86559C1.93002 8.05379 1.09877 7.00136 0.583496 5.7083C0.787663 5.19302 1.0453 4.7142 1.35641 4.27184C1.66752 3.82948 2.02239 3.4333 2.421 3.0833L0.816829 1.44997L1.6335 0.633301L12.3668 11.3666L11.5502 12.1833ZM3.23766 3.89997C2.95572 4.15275 2.69808 4.42983 2.46475 4.73122C2.23141 5.03261 2.03211 5.3583 1.86683 5.7083C2.35294 6.69025 3.05051 7.47045 3.95954 8.04893C4.86857 8.6274 5.88211 8.91663 7.00016 8.91663C7.19461 8.91663 7.38419 8.90448 7.56891 8.88018C7.75363 8.85587 7.94322 8.82913 8.13766 8.79997L7.61266 8.2458C7.50572 8.27497 7.40364 8.29684 7.30641 8.31143C7.20919 8.32601 7.10711 8.3333 7.00016 8.3333C6.271 8.3333 5.6512 8.07809 5.14079 7.56768C4.63037 7.05726 4.37516 6.43747 4.37516 5.7083C4.37516 5.60136 4.38245 5.49927 4.39704 5.40205C4.41162 5.30483 4.4335 5.20275 4.46266 5.0958L3.23766 3.89997Z" fill="#9F9F9F"/>
</svg>
